<?xml version="1.0" encoding="us-ascii" standalone="no"?><svg xmlns="http://www.w3.org/2000/svg" xmlns:xlink="http://www.w3.org/1999/xlink" contentStyleType="text/css" height="868px" preserveAspectRatio="none" style="width:752px;height:868px;background:#FFFFFF;" version="1.1" viewBox="0 0 752 868" width="752px" zoomAndPan="magnify"><defs/><g><!--class files--><g id="elem_files"><rect codeLine="3" fill="#F1F1F1" height="105.2038" id="files" rx="2.5" ry="2.5" style="stroke:#181818;stroke-width:0.5;" width="144" x="601.5" y="661.5"/><ellipse cx="655.25" cy="677.5" fill="#ADD1B2" rx="11" ry="11" style="stroke:#181818;stroke-width:1.0;"/><path d="M651.6094,684 L651.6094,671.8594 L659.2656,671.8594 L659.2656,673.9844 L653.9844,673.9844 L653.9844,676.6406 L659,676.6406 L659,678.7656 L653.9844,678.7656 L653.9844,681.875 L659.2656,681.875 L659.2656,684 L651.6094,684 Z " fill="#000000"/><text fill="#000000" font-family="sans-serif" font-size="14" lengthAdjust="spacing" textLength="28" x="675.75" y="682.932">files</text><line style="stroke:#181818;stroke-width:0.5;" x1="602.5" x2="744.5" y1="693.5" y2="693.5"/><ellipse cx="612.5" cy="708.534" fill="#000000" rx="3" ry="3" style="stroke:#000000;stroke-width:1.0;"/><text fill="#000000" font-family="sans-serif" font-size="14" lengthAdjust="spacing" textLength="97" x="621.5" y="712.4659">name: varchar</text><line style="stroke:#181818;stroke-width:1.0;" x1="602.5" x2="744.5" y1="720.5679" y2="720.5679"/><ellipse cx="612.5" cy="735.6019" fill="#000000" rx="3" ry="3" style="stroke:#000000;stroke-width:1.0;"/><text fill="#000000" font-family="sans-serif" font-size="14" lengthAdjust="spacing" textLength="88" x="621.5" y="739.5339">type: varchar</text><ellipse cx="612.5" cy="754.6698" fill="#000000" rx="3" ry="3" style="stroke:#000000;stroke-width:1.0;"/><text fill="#000000" font-family="sans-serif" font-size="14" lengthAdjust="spacing" textLength="118" x="621.5" y="758.6018">filename: varchar</text></g><!--class experiments--><g id="elem_experiments"><rect codeLine="10" fill="#F1F1F1" height="124.2717" id="experiments" rx="2.5" ry="2.5" style="stroke:#181818;stroke-width:0.5;" width="153" x="413" y="652"/><ellipse cx="444.65" cy="668" fill="#ADD1B2" rx="11" ry="11" style="stroke:#181818;stroke-width:1.0;"/><path d="M441.0094,674.5 L441.0094,662.3594 L448.6656,662.3594 L448.6656,664.4844 L443.3844,664.4844 L443.3844,667.1406 L448.4,667.1406 L448.4,669.2656 L443.3844,669.2656 L443.3844,672.375 L448.6656,672.375 L448.6656,674.5 L441.0094,674.5 Z " fill="#000000"/><text fill="#000000" font-family="sans-serif" font-size="14" lengthAdjust="spacing" textLength="84" x="462.35" y="673.432">experiments</text><line style="stroke:#181818;stroke-width:0.5;" x1="414" x2="565" y1="684" y2="684"/><ellipse cx="424" cy="699.034" fill="#000000" rx="3" ry="3" style="stroke:#000000;stroke-width:1.0;"/><text fill="#000000" font-family="sans-serif" font-size="14" lengthAdjust="spacing" textLength="118" x="433" y="702.9659">filename: varchar</text><line style="stroke:#181818;stroke-width:1.0;" x1="414" x2="565" y1="711.0679" y2="711.0679"/><ellipse cx="424" cy="726.1019" fill="#000000" rx="3" ry="3" style="stroke:#000000;stroke-width:1.0;"/><text fill="#000000" font-family="sans-serif" font-size="14" lengthAdjust="spacing" textLength="126" x="433" y="730.0339">raster_file: varchar</text><ellipse cx="424" cy="745.1698" fill="#000000" rx="3" ry="3" style="stroke:#000000;stroke-width:1.0;"/><text fill="#000000" font-family="sans-serif" font-size="14" lengthAdjust="spacing" textLength="127" x="433" y="749.1018">vector_file: varchar</text><text fill="#000000" font-family="sans-serif" font-size="14" lengthAdjust="spacing" textLength="96" x="433" y="768.1697">notes: varchar</text></g><!--class parameters--><g id="elem_parameters"><rect codeLine="18" fill="#F1F1F1" height="295.8829" id="parameters" rx="2.5" ry="2.5" style="stroke:#181818;stroke-width:0.5;" width="224" x="153.5" y="566"/><ellipse cx="222.25" cy="582" fill="#ADD1B2" rx="11" ry="11" style="stroke:#181818;stroke-width:1.0;"/><path d="M218.6094,588.5 L218.6094,576.3594 L226.2656,576.3594 L226.2656,578.4844 L220.9844,578.4844 L220.9844,581.1406 L226,581.1406 L226,583.2656 L220.9844,583.2656 L220.9844,586.375 L226.2656,586.375 L226.2656,588.5 L218.6094,588.5 Z " fill="#000000"/><text fill="#000000" font-family="sans-serif" font-size="14" lengthAdjust="spacing" textLength="78" x="242.75" y="587.432">parameters</text><line style="stroke:#181818;stroke-width:0.5;" x1="154.5" x2="376.5" y1="598" y2="598"/><ellipse cx="164.5" cy="613.034" fill="#000000" rx="3" ry="3" style="stroke:#000000;stroke-width:1.0;"/><text fill="#000000" font-family="sans-serif" font-size="14" lengthAdjust="spacing" textLength="39" x="173.5" y="616.9659">id: int</text><line style="stroke:#181818;stroke-width:1.0;" x1="154.5" x2="376.5" y1="625.0679" y2="625.0679"/><ellipse cx="164.5" cy="640.1019" fill="#000000" rx="3" ry="3" style="stroke:#000000;stroke-width:1.0;"/><text fill="#000000" font-family="sans-serif" font-size="14" lengthAdjust="spacing" textLength="106" x="173.5" y="644.0339">system: varchar</text><ellipse cx="164.5" cy="659.1698" fill="#000000" rx="3" ry="3" style="stroke:#000000;stroke-width:1.0;"/><text fill="#000000" font-family="sans-serif" font-size="14" lengthAdjust="spacing" textLength="197" x="173.5" y="663.1018">raster_target_format: varchar</text><ellipse cx="164.5" cy="678.2377" fill="#000000" rx="3" ry="3" style="stroke:#000000;stroke-width:1.0;"/><text fill="#000000" font-family="sans-serif" font-size="14" lengthAdjust="spacing" textLength="172" x="173.5" y="682.1697">raster_target_crs: varchar</text><ellipse cx="164.5" cy="697.3056" fill="#000000" rx="3" ry="3" style="stroke:#000000;stroke-width:1.0;"/><text fill="#000000" font-family="sans-serif" font-size="14" lengthAdjust="spacing" textLength="158" x="173.5" y="701.2376">raster_tile_size: varchar</text><ellipse cx="164.5" cy="716.3735" fill="#000000" rx="3" ry="3" style="stroke:#000000;stroke-width:1.0;"/><text fill="#000000" font-family="sans-serif" font-size="14" lengthAdjust="spacing" textLength="143" x="173.5" y="720.3055">raster_depth: ubigint</text><ellipse cx="164.5" cy="735.4415" fill="#000000" rx="3" ry="3" style="stroke:#000000;stroke-width:1.0;"/><text fill="#000000" font-family="sans-serif" font-size="14" lengthAdjust="spacing" textLength="169" x="173.5" y="739.3734">raster_resolution: double</text><ellipse cx="164.5" cy="754.5094" fill="#000000" rx="3" ry="3" style="stroke:#000000;stroke-width:1.0;"/><text fill="#000000" font-family="sans-serif" font-size="14" lengthAdjust="spacing" textLength="154" x="173.5" y="758.4414">vectorize_type: varchar</text><ellipse cx="164.5" cy="773.5773" fill="#000000" rx="3" ry="3" style="stroke:#000000;stroke-width:1.0;"/><text fill="#000000" font-family="sans-serif" font-size="14" lengthAdjust="spacing" textLength="198" x="173.5" y="777.5093">vector_target_format: varchar</text><ellipse cx="164.5" cy="792.6452" fill="#000000" rx="3" ry="3" style="stroke:#000000;stroke-width:1.0;"/><text fill="#000000" font-family="sans-serif" font-size="14" lengthAdjust="spacing" textLength="173" x="173.5" y="796.5772">vector_target_crs: varchar</text><ellipse cx="164.5" cy="811.7131" fill="#000000" rx="3" ry="3" style="stroke:#000000;stroke-width:1.0;"/><text fill="#000000" font-family="sans-serif" font-size="14" lengthAdjust="spacing" textLength="170" x="173.5" y="815.6451">vector_resolution: double</text><ellipse cx="164.5" cy="830.781" fill="#000000" rx="3" ry="3" style="stroke:#000000;stroke-width:1.0;"/><text fill="#000000" font-family="sans-serif" font-size="14" lengthAdjust="spacing" textLength="138" x="173.5" y="834.713">align_to_crs: varchar</text><ellipse cx="164.5" cy="849.849" fill="#000000" rx="3" ry="3" style="stroke:#000000;stroke-width:1.0;"/><text fill="#000000" font-family="sans-serif" font-size="14" lengthAdjust="spacing" textLength="181" x="173.5" y="853.7809">align_crs_at_stage: varchar</text></g><!--class benchmark_set--><g id="elem_benchmark_set"><rect codeLine="36" fill="#F1F1F1" height="105.2038" id="benchmark_set" rx="2.5" ry="2.5" style="stroke:#181818;stroke-width:0.5;" width="173" x="397" y="382"/><ellipse cx="429.55" cy="398" fill="#ADD1B2" rx="11" ry="11" style="stroke:#181818;stroke-width:1.0;"/><path d="M425.9094,404.5 L425.9094,392.3594 L433.5656,392.3594 L433.5656,394.4844 L428.2844,394.4844 L428.2844,397.1406 L433.3,397.1406 L433.3,399.2656 L428.2844,399.2656 L428.2844,402.375 L433.5656,402.375 L433.5656,404.5 L425.9094,404.5 Z " fill="#000000"/><text fill="#000000" font-family="sans-serif" font-size="14" lengthAdjust="spacing" textLength="102" x="447.45" y="403.432">benchmark_set</text><line style="stroke:#181818;stroke-width:0.5;" x1="398" x2="569" y1="414" y2="414"/><ellipse cx="408" cy="429.034" fill="#000000" rx="3" ry="3" style="stroke:#000000;stroke-width:1.0;"/><text fill="#000000" font-family="sans-serif" font-size="14" lengthAdjust="spacing" textLength="39" x="417" y="432.9659">id: int</text><line style="stroke:#181818;stroke-width:1.0;" x1="398" x2="569" y1="441.0679" y2="441.0679"/><ellipse cx="408" cy="456.1019" fill="#000000" rx="3" ry="3" style="stroke:#000000;stroke-width:1.0;"/><text fill="#000000" font-family="sans-serif" font-size="14" lengthAdjust="spacing" textLength="136" x="417" y="460.0339">experiment: varchar</text><ellipse cx="408" cy="475.1698" fill="#000000" rx="3" ry="3" style="stroke:#000000;stroke-width:1.0;"/><text fill="#000000" font-family="sans-serif" font-size="14" lengthAdjust="spacing" textLength="147" x="417" y="479.1018">exec_start: timestamp</text></g><!--class benchmark_run--><g id="elem_benchmark_run"><rect codeLine="43" fill="#F1F1F1" height="124.2717" id="benchmark_run" rx="2.5" ry="2.5" style="stroke:#181818;stroke-width:0.5;" width="154" x="195.5" y="372.5"/><ellipse cx="217.7" cy="388.5" fill="#ADD1B2" rx="11" ry="11" style="stroke:#181818;stroke-width:1.0;"/><path d="M214.0594,395 L214.0594,382.8594 L221.7156,382.8594 L221.7156,384.9844 L216.4344,384.9844 L216.4344,387.6406 L221.45,387.6406 L221.45,389.7656 L216.4344,389.7656 L216.4344,392.875 L221.7156,392.875 L221.7156,395 L214.0594,395 Z " fill="#000000"/><text fill="#000000" font-family="sans-serif" font-size="14" lengthAdjust="spacing" textLength="106" x="233.3" y="393.932">benchmark_run</text><line style="stroke:#181818;stroke-width:0.5;" x1="196.5" x2="348.5" y1="404.5" y2="404.5"/><ellipse cx="206.5" cy="419.534" fill="#000000" rx="3" ry="3" style="stroke:#000000;stroke-width:1.0;"/><text fill="#000000" font-family="sans-serif" font-size="14" lengthAdjust="spacing" textLength="39" x="215.5" y="423.4659">id: int</text><line style="stroke:#181818;stroke-width:1.0;" x1="196.5" x2="348.5" y1="431.5679" y2="431.5679"/><ellipse cx="206.5" cy="446.6019" fill="#000000" rx="3" ry="3" style="stroke:#000000;stroke-width:1.0;"/><text fill="#000000" font-family="sans-serif" font-size="14" lengthAdjust="spacing" textLength="104" x="215.5" y="450.5339">parameters: int</text><ellipse cx="206.5" cy="465.6698" fill="#000000" rx="3" ry="3" style="stroke:#000000;stroke-width:1.0;"/><text fill="#000000" font-family="sans-serif" font-size="14" lengthAdjust="spacing" textLength="128" x="215.5" y="469.6018">benchmark_set: int</text><ellipse cx="206.5" cy="484.7377" fill="#000000" rx="3" ry="3" style="stroke:#000000;stroke-width:1.0;"/><text fill="#000000" font-family="sans-serif" font-size="14" lengthAdjust="spacing" textLength="83" x="215.5" y="488.6697">iteration: int</text></g><!--class timings--><g id="elem_timings"><rect codeLine="52" fill="#F1F1F1" height="200.5433" id="timings" rx="2.5" ry="2.5" style="stroke:#181818;stroke-width:0.5;" width="195" x="59" y="54.5"/><ellipse cx="126.75" cy="70.5" fill="#ADD1B2" rx="11" ry="11" style="stroke:#181818;stroke-width:1.0;"/><path d="M123.1094,77 L123.1094,64.8594 L130.7656,64.8594 L130.7656,66.9844 L125.4844,66.9844 L125.4844,69.6406 L130.5,69.6406 L130.5,71.7656 L125.4844,71.7656 L125.4844,74.875 L130.7656,74.875 L130.7656,77 L123.1094,77 Z " fill="#000000"/><text fill="#000000" font-family="sans-serif" font-size="14" lengthAdjust="spacing" textLength="51" x="147.25" y="75.932">timings</text><line style="stroke:#181818;stroke-width:0.5;" x1="60" x2="253" y1="86.5" y2="86.5"/><ellipse cx="70" cy="101.534" fill="#000000" rx="3" ry="3" style="stroke:#000000;stroke-width:1.0;"/><text fill="#000000" font-family="sans-serif" font-size="14" lengthAdjust="spacing" textLength="69" x="79" y="105.4659">run_id: int</text><ellipse cx="70" cy="120.6019" fill="#000000" rx="3" ry="3" style="stroke:#000000;stroke-width:1.0;"/><text fill="#000000" font-family="sans-serif" font-size="14" lengthAdjust="spacing" textLength="169" x="79" y="124.5339">controller_time: datetime</text><line style="stroke:#181818;stroke-width:1.0;" x1="60" x2="253" y1="132.6358" y2="132.6358"/><ellipse cx="70" cy="147.6698" fill="#000000" rx="3" ry="3" style="stroke:#000000;stroke-width:1.0;"/><text fill="#000000" font-family="sans-serif" font-size="14" lengthAdjust="spacing" textLength="107" x="79" y="151.6018">marker: varchar</text><ellipse cx="70" cy="166.7377" fill="#000000" rx="3" ry="3" style="stroke:#000000;stroke-width:1.0;"/><text fill="#000000" font-family="sans-serif" font-size="14" lengthAdjust="spacing" textLength="140" x="79" y="170.6697">timestamp: datetime</text><ellipse cx="70" cy="185.8056" fill="#000000" rx="3" ry="3" style="stroke:#000000;stroke-width:1.0;"/><text fill="#000000" font-family="sans-serif" font-size="14" lengthAdjust="spacing" textLength="96" x="79" y="189.7376">event: varchar</text><ellipse cx="70" cy="204.8735" fill="#000000" rx="3" ry="3" style="stroke:#000000;stroke-width:1.0;"/><text fill="#000000" font-family="sans-serif" font-size="14" lengthAdjust="spacing" textLength="96" x="79" y="208.8055">stage: varchar</text><ellipse cx="70" cy="223.9415" fill="#000000" rx="3" ry="3" style="stroke:#000000;stroke-width:1.0;"/><text fill="#000000" font-family="sans-serif" font-size="14" lengthAdjust="spacing" textLength="109" x="79" y="227.8734">dataset: varchar</text><ellipse cx="70" cy="243.0094" fill="#000000" rx="3" ry="3" style="stroke:#000000;stroke-width:1.0;"/><text fill="#000000" font-family="sans-serif" font-size="14" lengthAdjust="spacing" textLength="122" x="79" y="246.9414">comment: varchar</text></g><!--class resource_util--><g id="elem_resource_util"><rect codeLine="64" fill="#F1F1F1" height="295.8829" id="resource_util" rx="2.5" ry="2.5" style="stroke:#181818;stroke-width:0.5;" width="201" x="289" y="7"/><ellipse cx="341.75" cy="23" fill="#ADD1B2" rx="11" ry="11" style="stroke:#181818;stroke-width:1.0;"/><path d="M338.1094,29.5 L338.1094,17.3594 L345.7656,17.3594 L345.7656,19.4844 L340.4844,19.4844 L340.4844,22.1406 L345.5,22.1406 L345.5,24.2656 L340.4844,24.2656 L340.4844,27.375 L345.7656,27.375 L345.7656,29.5 L338.1094,29.5 Z " fill="#000000"/><text fill="#000000" font-family="sans-serif" font-size="14" lengthAdjust="spacing" textLength="87" x="362.25" y="28.432">resource_util</text><line style="stroke:#181818;stroke-width:0.5;" x1="290" x2="489" y1="39" y2="39"/><ellipse cx="300" cy="54.034" fill="#000000" rx="3" ry="3" style="stroke:#000000;stroke-width:1.0;"/><text fill="#000000" font-family="sans-serif" font-size="14" lengthAdjust="spacing" textLength="69" x="309" y="57.9659">run_id: int</text><ellipse cx="300" cy="73.1019" fill="#000000" rx="3" ry="3" style="stroke:#000000;stroke-width:1.0;"/><text fill="#000000" font-family="sans-serif" font-size="14" lengthAdjust="spacing" textLength="175" x="309" y="77.0339">timestamp_host: datetime</text><ellipse cx="300" cy="92.1698" fill="#000000" rx="3" ry="3" style="stroke:#000000;stroke-width:1.0;"/><text fill="#000000" font-family="sans-serif" font-size="14" lengthAdjust="spacing" textLength="96" x="309" y="96.1018">stage: varchar</text><line style="stroke:#181818;stroke-width:1.0;" x1="290" x2="489" y1="104.2038" y2="104.2038"/><ellipse cx="300" cy="119.2377" fill="#000000" rx="3" ry="3" style="stroke:#000000;stroke-width:1.0;"/><text fill="#000000" font-family="sans-serif" font-size="14" lengthAdjust="spacing" textLength="74" x="309" y="123.1697">ID: varchar</text><ellipse cx="300" cy="138.3056" fill="#000000" rx="3" ry="3" style="stroke:#000000;stroke-width:1.0;"/><text fill="#000000" font-family="sans-serif" font-size="14" lengthAdjust="spacing" textLength="99" x="309" y="142.2376">Name: varchar</text><ellipse cx="300" cy="157.3735" fill="#000000" rx="3" ry="3" style="stroke:#000000;stroke-width:1.0;"/><text fill="#000000" font-family="sans-serif" font-size="14" lengthAdjust="spacing" textLength="124" x="309" y="161.3055">CPUUsage: double</text><ellipse cx="300" cy="176.4415" fill="#000000" rx="3" ry="3" style="stroke:#000000;stroke-width:1.0;"/><text fill="#000000" font-family="sans-serif" font-size="14" lengthAdjust="spacing" textLength="133" x="309" y="180.3734">MemUsage: ubigint</text><ellipse cx="300" cy="195.5094" fill="#000000" rx="3" ry="3" style="stroke:#000000;stroke-width:1.0;"/><text fill="#000000" font-family="sans-serif" font-size="14" lengthAdjust="spacing" textLength="124" x="309" y="199.4414">MemLimit: ubigint</text><ellipse cx="300" cy="214.5773" fill="#000000" rx="3" ry="3" style="stroke:#000000;stroke-width:1.0;"/><text fill="#000000" font-family="sans-serif" font-size="14" lengthAdjust="spacing" textLength="116" x="309" y="218.5093">NetIO_in: ubigint</text><ellipse cx="300" cy="233.6452" fill="#000000" rx="3" ry="3" style="stroke:#000000;stroke-width:1.0;"/><text fill="#000000" font-family="sans-serif" font-size="14" lengthAdjust="spacing" textLength="125" x="309" y="237.5772">NetIO_out: ubigint</text><ellipse cx="300" cy="252.7131" fill="#000000" rx="3" ry="3" style="stroke:#000000;stroke-width:1.0;"/><text fill="#000000" font-family="sans-serif" font-size="14" lengthAdjust="spacing" textLength="127" x="309" y="256.6451">BlockIO_in: ubigint</text><ellipse cx="300" cy="271.781" fill="#000000" rx="3" ry="3" style="stroke:#000000;stroke-width:1.0;"/><text fill="#000000" font-family="sans-serif" font-size="14" lengthAdjust="spacing" textLength="136" x="309" y="275.713">BlockIO_out: ubigint</text><ellipse cx="300" cy="290.849" fill="#000000" rx="3" ry="3" style="stroke:#000000;stroke-width:1.0;"/><text fill="#000000" font-family="sans-serif" font-size="14" lengthAdjust="spacing" textLength="96" x="309" y="294.7809">PIDs: uinteger</text></g><!--class results--><g id="elem_results"><rect codeLine="81" fill="#F1F1F1" height="143.3396" id="results" rx="2.5" ry="2.5" style="stroke:#181818;stroke-width:0.5;" width="153" x="7" y="363"/><ellipse cx="56.25" cy="379" fill="#ADD1B2" rx="11" ry="11" style="stroke:#181818;stroke-width:1.0;"/><path d="M52.6094,385.5 L52.6094,373.3594 L60.2656,373.3594 L60.2656,375.4844 L54.9844,375.4844 L54.9844,378.1406 L60,378.1406 L60,380.2656 L54.9844,380.2656 L54.9844,383.375 L60.2656,383.375 L60.2656,385.5 L52.6094,385.5 Z " fill="#000000"/><text fill="#000000" font-family="sans-serif" font-size="14" lengthAdjust="spacing" textLength="46" x="76.75" y="384.432">results</text><line style="stroke:#181818;stroke-width:0.5;" x1="8" x2="159" y1="395" y2="395"/><ellipse cx="18" cy="410.034" fill="#000000" rx="3" ry="3" style="stroke:#000000;stroke-width:1.0;"/><text fill="#000000" font-family="sans-serif" font-size="14" lengthAdjust="spacing" textLength="69" x="27" y="413.9659">run_id: int</text><ellipse cx="18" cy="429.1019" fill="#000000" rx="3" ry="3" style="stroke:#000000;stroke-width:1.0;"/><text fill="#000000" font-family="sans-serif" font-size="14" lengthAdjust="spacing" textLength="124" x="27" y="433.0339">warm_start_no: int</text><line style="stroke:#181818;stroke-width:1.0;" x1="8" x2="159" y1="441.1358" y2="441.1358"/><ellipse cx="18" cy="456.1698" fill="#000000" rx="3" ry="3" style="stroke:#000000;stroke-width:1.0;"/><text fill="#000000" font-family="sans-serif" font-size="14" lengthAdjust="spacing" textLength="125" x="27" y="460.1018">result_file: varchar</text><ellipse cx="18" cy="475.2377" fill="#000000" rx="3" ry="3" style="stroke:#000000;stroke-width:1.0;"/><text fill="#000000" font-family="sans-serif" font-size="14" lengthAdjust="spacing" textLength="95" x="27" y="479.1697">line_count: int</text><ellipse cx="18" cy="494.3056" fill="#000000" rx="3" ry="3" style="stroke:#000000;stroke-width:1.0;"/><text fill="#000000" font-family="sans-serif" font-size="14" lengthAdjust="spacing" textLength="127" x="27" y="498.2376">file_exists: boolean</text></g><!--link experiments to files--><g id="link_experiments_files"><path codeLine="90" d="M575.47,697 C575.47,697 592.25,697 592.25,697 " fill="none" id="experiments-files" style="stroke:#181818;stroke-width:1.0;"/><line style="stroke:#181818;stroke-width:1.0;" x1="575.47" x2="567.47" y1="697" y2="703"/><line style="stroke:#181818;stroke-width:1.0;" x1="575.47" x2="567.47" y1="697" y2="691"/><line style="stroke:#181818;stroke-width:1.0;" x1="575.47" x2="567.47" y1="697" y2="697"/><ellipse cx="581.47" cy="697" fill="none" rx="4" ry="4" style="stroke:#181818;stroke-width:1.0;"/><line style="stroke:#181818;stroke-width:1.0;" x1="596.25" x2="596.25" y1="693" y2="701"/><line style="stroke:#181818;stroke-width:1.0;" x1="593.25" x2="593.25" y1="693" y2="701"/><line style="stroke:#181818;stroke-width:1.0;" x1="592.25" x2="600.25" y1="697" y2="697"/></g><!--link experiments to files--><g id="link_experiments_files"><path codeLine="91" d="M575.47,732 C575.47,732 592.25,732 592.25,732 " fill="none" id="experiments-files-1" style="stroke:#181818;stroke-width:1.0;"/><line style="stroke:#181818;stroke-width:1.0;" x1="575.47" x2="567.47" y1="732" y2="738"/><line style="stroke:#181818;stroke-width:1.0;" x1="575.47" x2="567.47" y1="732" y2="726"/><line style="stroke:#181818;stroke-width:1.0;" x1="575.47" x2="567.47" y1="732" y2="732"/><ellipse cx="581.47" cy="732" fill="none" rx="4" ry="4" style="stroke:#181818;stroke-width:1.0;"/><line style="stroke:#181818;stroke-width:1.0;" x1="596.25" x2="596.25" y1="728" y2="736"/><line style="stroke:#181818;stroke-width:1.0;" x1="593.25" x2="593.25" y1="728" y2="736"/><line style="stroke:#181818;stroke-width:1.0;" x1="592.25" x2="600.25" y1="732" y2="732"/></g><!--link benchmark_set to experiments--><g id="link_benchmark_set_experiments"><path codeLine="93" d="M489.5,496.4 C489.5,496.4 489.5,642.55 489.5,642.55 " fill="none" id="benchmark_set-experiments" style="stroke:#181818;stroke-width:1.0;"/><line style="stroke:#181818;stroke-width:1.0;" x1="489.5" x2="483.5" y1="496.4" y2="488.4"/><line style="stroke:#181818;stroke-width:1.0;" x1="489.5" x2="495.5" y1="496.4" y2="488.4"/><line style="stroke:#181818;stroke-width:1.0;" x1="489.5" x2="489.5" y1="496.4" y2="488.4"/><ellipse cx="489.5" cy="502.4" fill="none" rx="4" ry="4" style="stroke:#181818;stroke-width:1.0;"/><line style="stroke:#181818;stroke-width:1.0;" x1="493.5" x2="485.5" y1="646.55" y2="646.55"/><line style="stroke:#181818;stroke-width:1.0;" x1="493.5" x2="485.5" y1="643.55" y2="643.55"/><line style="stroke:#181818;stroke-width:1.0;" x1="489.5" x2="489.5" y1="642.55" y2="650.55"/></g><!--link benchmark_run to benchmark_set--><g id="link_benchmark_run_benchmark_set"><path codeLine="94" d="M358.87,435 C358.87,435 387.51,435 387.51,435 " fill="none" id="benchmark_run-benchmark_set" style="stroke:#181818;stroke-width:1.0;"/><line style="stroke:#181818;stroke-width:1.0;" x1="358.87" x2="350.87" y1="435" y2="441"/><line style="stroke:#181818;stroke-width:1.0;" x1="358.87" x2="350.87" y1="435" y2="429"/><line style="stroke:#181818;stroke-width:1.0;" x1="358.87" x2="350.87" y1="435" y2="435"/><ellipse cx="364.87" cy="435" fill="none" rx="4" ry="4" style="stroke:#181818;stroke-width:1.0;"/><line style="stroke:#181818;stroke-width:1.0;" x1="391.51" x2="391.51" y1="431" y2="439"/><line style="stroke:#181818;stroke-width:1.0;" x1="388.51" x2="388.51" y1="431" y2="439"/><line style="stroke:#181818;stroke-width:1.0;" x1="387.51" x2="395.51" y1="435" y2="435"/></g><!--link benchmark_run to parameters--><g id="link_benchmark_run_parameters"><path codeLine="96" d="M272.5,505.88 C272.5,505.88 272.5,556.55 272.5,556.55 " fill="none" id="benchmark_run-parameters" style="stroke:#181818;stroke-width:1.0;"/><line style="stroke:#181818;stroke-width:1.0;" x1="272.5" x2="266.5" y1="505.88" y2="497.88"/><line style="stroke:#181818;stroke-width:1.0;" x1="272.5" x2="278.5" y1="505.88" y2="497.88"/><line style="stroke:#181818;stroke-width:1.0;" x1="272.5" x2="272.5" y1="505.88" y2="497.88"/><ellipse cx="272.5" cy="511.88" fill="none" rx="4" ry="4" style="stroke:#181818;stroke-width:1.0;"/><line style="stroke:#181818;stroke-width:1.0;" x1="276.5" x2="268.5" y1="560.55" y2="560.55"/><line style="stroke:#181818;stroke-width:1.0;" x1="276.5" x2="268.5" y1="557.55" y2="557.55"/><line style="stroke:#181818;stroke-width:1.0;" x1="272.5" x2="272.5" y1="556.55" y2="564.55"/></g><!--link resource_util to benchmark_run--><g id="link_resource_util_benchmark_run"><path codeLine="98" d="M319.25,312.34 C319.25,312.34 319.25,363.25 319.25,363.25 " fill="none" id="resource_util-benchmark_run" style="stroke:#181818;stroke-width:1.0;"/><line style="stroke:#181818;stroke-width:1.0;" x1="319.25" x2="313.25" y1="312.34" y2="304.34"/><line style="stroke:#181818;stroke-width:1.0;" x1="319.25" x2="325.25" y1="312.34" y2="304.34"/><line style="stroke:#181818;stroke-width:1.0;" x1="319.25" x2="319.25" y1="312.34" y2="304.34"/><ellipse cx="319.25" cy="318.34" fill="none" rx="4" ry="4" style="stroke:#181818;stroke-width:1.0;"/><line style="stroke:#181818;stroke-width:1.0;" x1="323.25" x2="315.25" y1="367.25" y2="367.25"/><line style="stroke:#181818;stroke-width:1.0;" x1="323.25" x2="315.25" y1="364.25" y2="364.25"/><line style="stroke:#181818;stroke-width:1.0;" x1="319.25" x2="319.25" y1="363.25" y2="371.25"/></g><!--link timings to benchmark_run--><g id="link_timings_benchmark_run"><path codeLine="99" d="M224.75,264.91 C224.75,264.91 224.75,363.36 224.75,363.36 " fill="none" id="timings-benchmark_run" style="stroke:#181818;stroke-width:1.0;"/><line style="stroke:#181818;stroke-width:1.0;" x1="224.75" x2="218.75" y1="264.91" y2="256.91"/><line style="stroke:#181818;stroke-width:1.0;" x1="224.75" x2="230.75" y1="264.91" y2="256.91"/><line style="stroke:#181818;stroke-width:1.0;" x1="224.75" x2="224.75" y1="264.91" y2="256.91"/><ellipse cx="224.75" cy="270.91" fill="none" rx="4" ry="4" style="stroke:#181818;stroke-width:1.0;"/><line style="stroke:#181818;stroke-width:1.0;" x1="228.75" x2="220.75" y1="367.36" y2="367.36"/><line style="stroke:#181818;stroke-width:1.0;" x1="228.75" x2="220.75" y1="364.36" y2="364.36"/><line style="stroke:#181818;stroke-width:1.0;" x1="224.75" x2="224.75" y1="363.36" y2="371.36"/></g><!--link results to benchmark_run--><g id="link_results_benchmark_run"><path codeLine="100" d="M169.37,435 C169.37,435 186.08,435 186.08,435 " fill="none" id="results-benchmark_run" style="stroke:#181818;stroke-width:1.0;"/><line style="stroke:#181818;stroke-width:1.0;" x1="169.37" x2="161.37" y1="435" y2="441"/><line style="stroke:#181818;stroke-width:1.0;" x1="169.37" x2="161.37" y1="435" y2="429"/><line style="stroke:#181818;stroke-width:1.0;" x1="169.37" x2="161.37" y1="435" y2="435"/><ellipse cx="175.37" cy="435" fill="none" rx="4" ry="4" style="stroke:#181818;stroke-width:1.0;"/><line style="stroke:#181818;stroke-width:1.0;" x1="190.08" x2="190.08" y1="431" y2="439"/><line style="stroke:#181818;stroke-width:1.0;" x1="187.08" x2="187.08" y1="431" y2="439"/><line style="stroke:#181818;stroke-width:1.0;" x1="186.08" x2="194.08" y1="435" y2="435"/></g><!--SRC=[ZLNBSgCm43oRhz2PAdx0nqqkhjhDvfApIeOng2maIXgSUEFy-uuCDX8W9pvXTK_FKoDtbBeJLhHCIGruxe0PYut9Cj0eySmEKe5ZdzacPrgqi6KdOSj6s6nJ5FxGcmI7-TKWPdxTnU2Z0ojR-ZTABibUbj4lPrOu1Ciz9N9mWXBDubmR1BVcyveTa99toQPVpcIrPLBZtUKTS6Vot4vY4JY6XSBMWFnWR2lmHzJIkczub15tyXyyfbNGORDb_LxMFlerYWLdL8_Iw2shJBzN4DE64f8d7hTlXVIZH6DgEj6HzrruGibQSpGFb0OAuLmWToZgbIne1cv3i0TTDgsmH-u0upbWUM8EM3wDwseKdW2bzsw9W4IapxOB_I_Ssrv7xkzJo6Rkys1mX_12BCfd2Kko4aDzGoWe24KhTUtcfM0K7x_L8qPAez4QfQw3wczi9H3yrx9kp4S6Db6qgLA1Hio0KxhcBD7j0IH1SIt9EboQThsTKw_ySFQs14u3gkOh8r6U82VU68VhYIr2NooUtNDYt5-Y7Hb1JwzlR-ugktQL_a0xeglxWk3VD0cOW5y0Tt-vr0zXqwVCVobJ7Xy9t0XfYTVTCur_J-TGGw9TlSB5RaztYhqBsmwNbckJU056sTaZ4rFyWybBqsjSy-8jENn8XnJ_tXW5GaVX1q_Xbocih1iiBfVXlPsZ4v35cuomohnhZmScMRnlGld8FCk2n_5oAVgkC9_niifcMdTMT4rIf77BB6451nnLVFUopNy0]--></g></svg>